<?xml version="1.0" encoding="UTF-8" standalone="no"?>
<svg width="23px" height="20px" viewBox="0 0 23 20" version="1.1" xmlns="http://www.w3.org/2000/svg" xmlns:xlink="http://www.w3.org/1999/xlink" xmlns:sketch="http://www.bohemiancoding.com/sketch/ns">
    <!-- Generator: Sketch 3.3.3 (12072) - http://www.bohemiancoding.com/sketch -->
    <title>Fill 176 Copy 4</title>
    <desc>Created with Sketch.</desc>
    <defs></defs>
    <g id="Exchange---Maps-Feedbacks" stroke="none" stroke-width="1" fill="none" fill-rule="evenodd" sketch:type="MSPage">
        <g id="Artboard-12" sketch:type="MSArtboardGroup" transform="translate(-43.000000, -30.000000)" fill="#2BB6AF">
            <path d="M47.3751939,47.834341 L52.2287425,49.119843 C52.3552638,49.1393942 52.4447606,49.1340223 52.5134376,49.0943716 C52.6006344,49.0440286 52.6492633,48.9696535 52.6884171,48.8770849 C52.7182151,48.7683116 52.6950952,48.6890616 52.6451977,48.6026366 L51.5848751,46.766104 L64.8873895,39.0858937 C64.9738146,39.0359962 65.0232152,38.9611756 65.0620428,38.8698242 C65.0744189,38.7700806 65.0694926,38.6813554 65.0191495,38.5941587 L63.9494712,36.7414215 C63.8991282,36.6542247 63.8247531,36.6055958 63.7321845,36.566442 C63.6332125,36.5536204 63.5441612,36.5597639 63.4577361,36.6096614 L50.1552217,44.2898717 L49.0948992,42.4533392 C49.0450016,42.3669141 48.987929,42.3072667 48.8788296,42.2786859 C48.779086,42.2663098 48.6903608,42.2712361 48.6031641,42.3215792 C48.516739,42.3714767 48.4673384,42.4462973 48.4459327,42.5286191 L47.1252608,47.4014441 C47.1034095,47.4829942 47.1087814,47.572491 47.1586789,47.6589161 C47.2085764,47.7453411 47.283397,47.7947417 47.3751939,47.834341 L47.3751939,47.834341 Z M44.3354541,42.5693572 C44.4347522,42.5809617 44.5242491,42.5755898 44.6106741,42.5256923 L57.9124169,34.8459275 L58.9722939,36.6816884 C59.0221915,36.7681134 59.0800357,36.8273153 59.188809,36.8571133 C59.2881071,36.8687178 59.3776039,36.8633459 59.464029,36.8134484 C59.5512257,36.7631053 59.5998547,36.6887303 59.6224776,36.6067346 L60.9419323,31.7335835 C60.9645553,31.6515879 60.9591834,31.562091 60.8994846,31.4586896 C60.8491415,31.3714929 60.7747664,31.322864 60.6919992,31.3006866 L55.8392223,30.014739 C55.7301229,29.9861582 55.6236497,30.0013314 55.554201,30.0414276 C55.4507996,30.1011264 55.401399,30.175947 55.378776,30.2579426 C55.3399484,30.3492941 55.3725434,30.4467376 55.422441,30.5331627 L56.482318,32.3689235 L43.1805752,40.0486883 C43.0941502,40.0985858 43.0447496,40.1734064 43.0051503,40.2652034 C42.9935458,40.3645015 42.9989177,40.4539983 43.0488152,40.5404234 L44.1189391,42.3939323 C44.1688366,42.4803573 44.2436572,42.5297579 44.3354541,42.5693572 L44.3354541,42.5693572 Z" id="Fill-176-Copy-4" sketch:type="MSShapeGroup"></path>
        </g>
    </g>
</svg>