<?xml version="1.0" encoding="UTF-8" standalone="no"?>
<svg width="20px" height="19px" viewBox="0 0 20 19" version="1.1" xmlns="http://www.w3.org/2000/svg" xmlns:xlink="http://www.w3.org/1999/xlink" xmlns:sketch="http://www.bohemiancoding.com/sketch/ns">
    <!-- Generator: Sketch 3.3.3 (12072) - http://www.bohemiancoding.com/sketch -->
    <title>Fill 126 Copy</title>
    <desc>Created with Sketch.</desc>
    <defs></defs>
    <g id="Exchange---Maps-Feedbacks" stroke="none" stroke-width="1" fill="none" fill-rule="evenodd" sketch:type="MSPage">
        <g id="Artboard-12" sketch:type="MSArtboardGroup" transform="translate(-197.000000, -31.000000)" fill="#9AA5A8">
            <path d="M198.017877,48.9821226 C198.711578,49.6536322 199.512372,50 200.486833,50 L210.514132,50 C211.488593,50 212.289387,49.6536322 212.982123,48.9821226 C213.653632,48.2893871 214,47.4876277 214,46.5131669 L214,43.3948922 C214,43.2212259 213.914132,43.1131669 213.740465,43.0485244 C213.58899,42.983882 213.45874,43.0051078 213.329455,43.1353575 C213.112372,43.3302497 212.896254,43.4817253 212.679171,43.5897843 C212.527696,43.6766175 212.463053,43.7846765 212.463053,43.9361521 L212.463053,46.5353575 C212.463053,47.0544268 212.268161,47.5098184 211.899603,47.8996027 C211.509818,48.2671964 211.055392,48.4620885 210.535358,48.4620885 L200.465607,48.4620885 C199.945573,48.4620885 199.491146,48.2671964 199.101362,47.8996027 C198.732804,47.5098184 198.537911,47.0544268 198.537911,46.5353575 L198.537911,36.4656073 C198.537911,35.9455732 198.732804,35.4901816 199.101362,35.1003973 C199.491146,34.7328036 199.945573,34.5379115 200.465607,34.5379115 L201.829852,34.5379115 C201.873269,34.5379115 201.937911,34.5157208 202.002554,34.4944949 C202.457946,34.2127696 202.999205,33.9744608 203.627299,33.7795687 C203.822191,33.7361521 203.93025,33.6068672 203.93025,33.3897843 C203.93025,33.2817253 203.886833,33.1948922 203.822191,33.108059 C203.735358,33.0434166 203.648524,33 203.540465,33 L200.465607,33 C199.512372,33 198.689387,33.3463678 198.017877,34.0178774 C197.347333,34.7106129 197,35.5123723 197,36.4868331 L197,46.5131669 C197,47.4876277 197.347333,48.2893871 198.017877,48.9821226 L198.017877,48.9821226 Z M200.215849,42.9216274 C200.345936,43.4817172 200.519386,43.9529515 200.670672,44.356296 C200.843158,44.7596406 201.037808,45.1629851 201.275819,45.6112567 C201.513831,46.0365656 201.665117,46.3280919 201.751842,46.4628728 C201.838567,46.5966554 201.924328,46.7314364 202.011053,46.8432547 C202.097778,46.955073 202.184503,47 202.31459,47 C202.356989,47 202.400351,47 202.465877,46.9780357 C202.638363,46.8881817 202.725088,46.7534007 202.703888,46.5517284 C202.33579,43.7512792 202.638363,41.778485 203.611609,40.6363409 C204.520292,39.5381255 206.294298,39 208.889298,39 L210.81459,39 L210.81459,41.3981031 C210.81459,41.7565207 210.987076,42.0031199 211.28965,42.1379009 C211.398538,42.1818295 211.506462,42.2047922 211.593187,42.2047922 C211.809035,42.2047922 212.003684,42.1149382 212.133772,41.9581929 L216.784151,37.1629851 C216.935438,37.0052415 217,36.8265319 217,36.6018969 C217,36.3782603 216.935438,36.1995507 216.784151,36.0418071 L212.133772,31.2465993 C211.982485,31.089854 211.809035,31 211.593187,31 C211.506462,31 211.398538,31.0219643 211.28965,31.0668913 C210.987076,31.2016723 210.81459,31.4482716 210.81459,31.8066891 L210.81459,34.2047922 L208.889298,34.2047922 C208.04614,34.2047922 207.24538,34.2497192 206.531346,34.3385748 C205.796112,34.4284288 205.147602,34.5632098 204.584854,34.7199551 C204.044269,34.8767004 203.547047,35.0783726 203.093187,35.3249719 C202.638363,35.5715712 202.271228,35.8181705 201.946491,36.0867341 C201.643918,36.3782603 201.362544,36.6697866 201.124532,37.0282042 C200.886521,37.3646574 200.691872,37.7001123 200.561784,38.0365656 C200.410498,38.3730188 200.302573,38.7314364 200.215849,39.134781 C200.130087,39.5381255 200.086725,39.9185074 200.043362,40.2549607 C200.021199,40.6133783 200,40.9947585 200,41.3981031 C200,41.8683389 200.064562,42.3835018 200.215849,42.9216274 L200.215849,42.9216274 Z" id="Fill-126-Copy" sketch:type="MSShapeGroup"></path>
        </g>
    </g>
</svg>