<?xml version="1.0" encoding="UTF-8" standalone="no"?>
<svg width="18px" height="15px" viewBox="0 0 18 15" version="1.1" xmlns="http://www.w3.org/2000/svg" xmlns:xlink="http://www.w3.org/1999/xlink" xmlns:sketch="http://www.bohemiancoding.com/sketch/ns">
    <!-- Generator: Sketch 3.3.3 (12072) - http://www.bohemiancoding.com/sketch -->
    <title>Fill 153</title>
    <desc>Created with Sketch.</desc>
    <defs></defs>
    <g id="Exchange---Maps-Feedbacks" stroke="none" stroke-width="1" fill="none" fill-rule="evenodd" sketch:type="MSPage">
        <g id="Artboard-12" sketch:type="MSArtboardGroup" transform="translate(-276.000000, -35.000000)" fill="#9AA5A8">
            <path d="M277.2318,37.3105115 L277.2318,49.6849657 C277.2318,49.7723019 277.267881,49.8424828 277.321602,49.8947286 C277.393765,49.9649095 277.465125,50 277.555729,50 L278.185146,50 C278.274949,50 278.347111,49.9649095 278.419274,49.8947286 C278.472995,49.8424828 278.509076,49.7723019 278.509076,49.6849657 L278.509076,37.3105115 C278.941249,37.0656581 279.156934,36.7155334 279.156934,36.2429819 C279.156934,35.8928571 279.031051,35.5949782 278.779284,35.3501248 C278.527517,35.1224267 278.221228,35 277.879659,35 C277.519648,35 277.213359,35.1224267 276.961592,35.3501248 C276.709825,35.5949782 276.583942,35.8928571 276.583942,36.2429819 C276.583942,36.7155334 276.799627,37.0656581 277.2318,37.3105115 L277.2318,37.3105115 Z M279.349182,46.0842927 C279.47138,46.2070194 279.611479,46.2773723 279.785825,46.2773723 C279.8909,46.2773723 279.995974,46.2421958 280.10027,46.189822 C281.864744,45.2424034 283.384823,44.7686941 284.625481,44.7686941 C285.097149,44.7686941 285.568817,44.839047 286.022583,44.978971 C286.460005,45.1196768 286.843722,45.2775799 287.141044,45.4526803 C287.438366,45.6285625 287.787058,45.7864656 288.206578,45.9263896 C288.608196,46.0670954 289.010592,46.1374482 289.394309,46.1374482 C290.407695,46.1374482 291.596205,45.7512892 292.993307,44.9969501 C293.168431,44.9086182 293.307752,44.8210679 293.377802,44.7335177 C293.464975,44.6459675 293.5,44.5232408 293.5,44.3473586 L293.5,36.8907365 C293.5,36.7148543 293.447852,36.5749303 293.325654,36.4522036 C293.203456,36.329477 293.046234,36.2591241 292.889011,36.2591241 C292.80106,36.2591241 292.626714,36.329477 292.347293,36.469401 C292.084996,36.6101067 291.788452,36.7500308 291.49113,36.9259129 C291.193808,37.1010134 290.827215,37.2417191 290.425596,37.3816432 C290.006077,37.5223489 289.621581,37.5927018 289.272111,37.5927018 C288.957666,37.5927018 288.661122,37.5223489 288.415948,37.3996222 C287.595588,37.0134632 286.896648,36.7328334 286.284881,36.5397539 C285.673892,36.3466743 285.027099,36.2591241 284.328159,36.2591241 C283.122526,36.2591241 281.760448,36.6452832 280.223246,37.4347987 C279.855875,37.6270965 279.593577,37.7678022 279.454256,37.8553525 C279.262009,37.9960582 279.156934,38.1891377 279.156934,38.3994146 L279.156934,45.6457599 C279.156934,45.821642 279.226984,45.9615661 279.349182,46.0842927 L279.349182,46.0842927 Z" id="Fill-153" sketch:type="MSShapeGroup"></path>
        </g>
    </g>
</svg>