<?xml version="1.0" encoding="UTF-8" standalone="no"?>
<svg width="18px" height="18px" viewBox="0 0 18 18" version="1.1" xmlns="http://www.w3.org/2000/svg" xmlns:xlink="http://www.w3.org/1999/xlink" xmlns:sketch="http://www.bohemiancoding.com/sketch/ns">
    <!-- Generator: Sketch 3.3.3 (12072) - http://www.bohemiancoding.com/sketch -->
    <title>Fill 221 Copy</title>
    <desc>Created with Sketch.</desc>
    <defs></defs>
    <g id="Exchange---Maps-Feedbacks" stroke="none" stroke-width="1" fill="none" fill-rule="evenodd" sketch:type="MSPage">
        <g id="Artboard-12" sketch:type="MSArtboardGroup" transform="translate(-124.000000, -32.000000)" fill="#9AA5A8">
            <path d="M124.197628,47.6337286 L126.385595,49.8032499 C126.504172,49.9411506 126.681599,50 126.878349,50 C127.075977,50 127.233202,49.9411506 127.371102,49.8032499 L141.507246,35.6671058 C141.645147,35.5292051 141.724199,35.3711023 141.724199,35.1743522 C141.724199,34.9767238 141.645147,34.7992973 141.507246,34.6613966 L139.338603,32.4927536 C139.200703,32.3548529 139.0426,32.2960035 138.84585,32.2960035 C138.648221,32.2960035 138.470795,32.3548529 138.352218,32.4927536 L124.197628,46.6482213 C124.058849,46.7667984 124,46.9442249 124,47.140975 C124,47.3386034 124.058849,47.4958278 124.197628,47.6337286 L124.197628,47.6337286 Z M126.187967,33.7347387 L126.523496,34.8194993 L126.859025,33.7347387 L127.923584,33.4000878 L126.859025,33.0847606 L126.523496,32 L126.187967,33.0847606 L125.104084,33.4000878 L126.187967,33.7347387 L126.187967,33.7347387 Z M129.382521,36.1800615 L130.032499,38.3285024 L130.703557,36.1800615 L132.851998,35.5090031 L130.703557,34.859025 L130.032499,32.7097058 L129.382521,34.859025 L127.233202,35.5090031 L129.382521,36.1800615 L129.382521,36.1800615 Z M133.227053,33.7347387 L133.561704,34.8194993 L133.897233,33.7347387 L134.961792,33.4000878 L133.897233,33.0847606 L133.561704,32 L133.227053,33.0847606 L132.162495,33.4000878 L133.227053,33.7347387 L133.227053,33.7347387 Z M138.84585,33.9912165 L140.028107,35.1743522 L136.794906,38.3873518 L135.612648,37.2050944 L138.84585,33.9912165 L138.84585,33.9912165 Z M140.265261,40.7729469 L140.599912,41.8577075 L140.935441,40.7729469 L142.019324,40.438296 L140.935441,40.1229688 L140.599912,39.0382082 L140.265261,40.1229688 L139.200703,40.438296 L140.265261,40.7729469 L140.265261,40.7729469 Z" id="Fill-221-Copy" sketch:type="MSShapeGroup"></path>
        </g>
    </g>
</svg>