<?xml version="1.0" encoding="UTF-8" standalone="no"?>
<svg width="20px" height="20px" viewBox="0 0 20 20" version="1.1" xmlns="http://www.w3.org/2000/svg" xmlns:xlink="http://www.w3.org/1999/xlink" xmlns:sketch="http://www.bohemiancoding.com/sketch/ns">
    <!-- Generator: Sketch 3.3.3 (12072) - http://www.bohemiancoding.com/sketch -->
    <title>Fill 227 Copy 6</title>
    <desc>Created with Sketch.</desc>
    <defs></defs>
    <g id="Exchange---Maps-Feedbacks" stroke="none" stroke-width="1" fill="none" fill-rule="evenodd" sketch:type="MSPage">
        <g id="Artboard-12" sketch:type="MSArtboardGroup" transform="translate(-85.000000, -30.000000)" fill="#9AA5A8">
            <path d="M89.7568305,48.669162 C91.2303436,49.5560408 92.8381742,50 94.5803224,50 C96.2995868,50 97.9074174,49.5560408 99.3819254,48.669162 C100.83355,47.7822832 101.99465,46.5689333 102.865227,45.0291121 C103.713915,43.4882512 104.138756,41.8319817 104.138756,40.0114369 C104.138756,38.1908921 103.713915,36.5107091 102.865227,34.9937617 C101.99465,33.4539405 100.83355,32.2395508 99.3819254,31.3526721 C97.9074174,30.4429195 96.2995868,30 94.5803224,30 C92.8381742,30 91.2303436,30.4429195 89.7568305,31.3526721 C88.3052062,32.2395508 87.1441058,33.4539405 86.2725343,34.9937617 C85.4238464,36.5107091 85,38.1908921 85,40.0114369 C85,41.8319817 85.4238464,43.4882512 86.2725343,45.0291121 C87.1441058,46.5689333 88.3052062,47.7822832 89.7568305,48.669162 L89.7568305,48.669162 Z M90.7388409,32.7063839 C90.7836135,32.6835101 90.8950473,32.6835101 91.0293648,32.6835101 C91.0960261,32.7063839 91.1407986,32.7302974 91.2084548,32.7531711 C91.2751161,32.7999584 91.3198886,32.8467457 91.3865499,32.893533 C91.4532112,32.963194 91.4979837,33.0099813 91.5208675,33.0338948 C91.5427563,32.9871075 91.5208675,32.893533 91.476095,32.7999584 C91.476095,32.7302974 91.56564,32.6835101 91.7437351,32.6367228 C91.9228251,32.613849 92.0561477,32.613849 92.123804,32.6595966 C92.0561477,32.5670618 91.9894864,32.4734872 91.8551689,32.3331254 L91.8113913,32.3799127 C91.7437351,32.3331254 91.56564,32.3570389 91.2751161,32.4734872 C91.2751161,32.496361 91.2303436,32.5202745 91.1636823,32.5431483 C91.0960261,32.5899355 91.0293648,32.613849 90.9845923,32.6367228 C90.9398198,32.6595966 90.8950473,32.6595966 90.8512697,32.6595966 C91.2522324,32.4266999 91.6323013,32.2395508 92.0123701,32.1231025 C92.0342589,32.1231025 92.0790314,32.1698898 92.1456927,32.2166771 C92.1904652,32.2863381 92.2352378,32.3331254 92.2800103,32.3570389 C92.2581215,32.3331254 92.2352378,32.3331254 92.2352378,32.3799127 C92.1904652,32.4734872 92.1904652,32.5670618 92.2352378,32.6367228 C92.2800103,32.7063839 92.3247828,32.7302974 92.3914441,32.7302974 C92.4591003,32.7531711 92.5476504,32.7531711 92.6600791,32.7302974 C92.7486292,32.7063839 92.8162855,32.7063839 92.861058,32.7063839 L92.9724918,32.7063839 C93.2401319,32.7302974 93.3515657,32.7063839 93.2849044,32.6367228 C93.3077881,32.6595966 93.3515657,32.7531711 93.3744494,32.8467457 C93.3963382,32.963194 93.4411107,33.0338948 93.4858832,33.0796423 C93.5306557,33.0338948 93.5306557,32.9871075 93.508767,32.893533 C93.4858832,32.7999584 93.4858832,32.7531711 93.508767,32.7063839 C93.5306557,32.7063839 93.5525445,32.6835101 93.5754282,32.6595966 C93.6202008,32.6367228 93.6649733,32.6367228 93.7316346,32.613849 C93.7764071,32.5899355 93.8211796,32.5670618 93.8430684,32.5670618 C93.8878409,32.5202745 93.8430684,32.4734872 93.7316346,32.3799127 C93.7087508,32.3570389 93.6868621,32.3570389 93.6202008,32.3331254 C93.5754282,32.3102516 93.5306557,32.3102516 93.4858832,32.2863381 C93.4411107,32.2634643 93.3963382,32.2395508 93.3515657,32.2166771 C93.3077881,32.1938033 93.2849044,32.147016 93.2849044,32.1002287 C93.3077881,32.0763152 93.3296769,32.029528 93.3515657,31.9598669 C93.4192219,31.9130796 93.4858832,31.8902059 93.597317,31.9130796 C93.7087508,31.9130796 93.7982959,31.9369931 93.8659521,31.9837804 C94.0888197,32.1002287 94.1107085,32.2166771 93.9545022,32.3331254 C94.0440472,32.3331254 94.1335922,32.3570389 94.2679098,32.4266999 C94.3793436,32.496361 94.4241161,32.5431483 94.4012323,32.613849 C94.4688886,32.496361 94.5355499,32.4266999 94.6022112,32.4266999 C94.6469837,32.4266999 94.6698674,32.496361 94.7146399,32.613849 C94.7584175,32.7063839 94.7813012,32.7770846 94.7813012,32.7770846 C94.8479625,32.8696195 94.9156187,32.893533 94.98228,32.8467457 C95.0489413,32.7999584 95.1165976,32.7063839 95.1832589,32.613849 C95.2499202,32.5202745 95.2946927,32.4734872 95.3175764,32.4734872 C95.2280314,32.4495737 95.2051476,32.4038262 95.2728039,32.3799127 C95.4061265,32.2863381 95.5185552,32.2863381 95.6071053,32.3102516 C95.6518778,32.3331254 95.6747615,32.3570389 95.719534,32.4266999 C95.7861953,32.5899355 95.7861953,32.6595966 95.6747615,32.6595966 C95.7643066,32.7302974 95.7861953,32.7999584 95.7643066,32.9164067 C95.7643066,33.0099813 95.6966503,33.0567686 95.5852165,33.0567686 C95.540444,33.0567686 95.4737827,33.0338948 95.4061265,32.9871075 C95.3175764,32.9403202 95.2499202,32.9164067 95.2280314,32.9164067 C95.1832589,32.9164067 95.1165976,32.9403202 95.0489413,32.9871075 C95.0041688,33.0338948 94.9593963,33.1035558 94.9156187,33.2200042 C94.8708462,33.3135787 94.80319,33.3832398 94.7813012,33.430027 C94.6469837,33.5703889 94.4460048,33.6171761 94.155481,33.5703889 C94.1783647,33.5703889 94.1783647,33.5932626 94.1335922,33.6639634 C94.1107085,33.7107507 94.0669309,33.7564982 94.0221584,33.827199 C93.9773859,33.8968601 93.9326134,33.9207735 93.9326134,33.9436473 C93.8659521,34.0372219 93.8211796,34.1307964 93.7764071,34.2472447 L93.7764071,34.4104803 C93.7535233,34.5040549 93.7535233,34.5965897 93.7316346,34.643377 C93.8211796,34.6205032 93.9107246,34.6672905 93.9545022,34.8066126 C93.9992747,34.9241006 93.9992747,34.9937617 93.9545022,34.9937617 C94.245026,34.9469744 94.4688886,34.9708879 94.6917562,35.040549 C94.98228,35.1569973 95.1603751,35.2734456 95.1832589,35.3909337 C95.2499202,35.2973591 95.3623489,35.2973591 95.5623328,35.3670202 C95.629989,35.4138074 95.6966503,35.5541693 95.7643066,35.7641921 C95.7861953,35.9035142 95.8528566,35.9970888 95.9205129,36.0906633 C96.009063,36.2071117 96.0767192,36.2310252 96.188153,36.1842379 L96.2100418,36.1603244 C96.2548143,36.1374506 96.277698,36.1135371 96.2995868,36.1135371 C96.3224705,36.0906633 96.3443593,36.0677896 96.367243,36.0438761 C96.3891318,36.0438761 96.4110206,36.0210023 96.4110206,35.9970888 C96.4110206,35.974215 96.4110206,35.9503015 96.3891318,35.9503015 C96.3224705,35.9035142 96.277698,35.8109794 96.2548143,35.7402786 C96.2329255,35.6467041 96.2329255,35.5541693 96.277698,35.4834685 C96.2995868,35.4605947 96.367243,35.3909337 96.4786768,35.3441464 C96.5901106,35.2734456 96.6567719,35.2037846 96.6796557,35.1341235 C96.7015445,35.0166355 96.6796557,34.9241006 96.5453381,34.8533999 C96.4339043,34.760865 96.367243,34.7140778 96.367243,34.643377 C96.367243,34.5965897 96.4110206,34.5508422 96.4557931,34.4801414 C96.5234494,34.4333541 96.5453381,34.3636931 96.5234494,34.3169058 C96.5234494,34.294032 96.5234494,34.2472447 96.4786768,34.1536702 C96.4557931,34.0600957 96.4339043,34.0133084 96.4339043,33.9665211 C96.4339043,33.9436473 96.4557931,33.8968601 96.5005656,33.827199 C96.5453381,33.8032855 96.6796557,33.8032855 96.9025233,33.8500728 C97.1263858,33.8739863 97.2597084,33.9207735 97.3273647,33.9665211 C97.3492534,33.9904346 97.394026,34.0133084 97.483571,34.0372219 C97.573116,34.0840091 97.6397773,34.1068829 97.7064386,34.1536702 C97.7740948,34.2004575 97.7959836,34.2233313 97.8188673,34.2701185 L97.7512111,34.2701185 C97.7959836,34.3169058 97.8407561,34.3876066 97.8626449,34.4572676 C97.8626449,34.5269287 97.8407561,34.5737159 97.7512111,34.5965897 C97.8188673,34.5965897 97.8855286,34.5965897 97.9521899,34.643377 C98.0865075,34.6901643 98.0865075,34.7369515 97.9750737,34.7837388 C97.9969624,34.7837388 98.0417349,34.760865 98.0865075,34.760865 C98.13128,34.760865 98.1531687,34.7369515 98.1760525,34.7140778 C98.1979413,34.7140778 98.220825,34.6901643 98.2427138,34.6672905 C98.2646026,34.643377 98.2874863,34.643377 98.3093751,34.643377 C98.3093751,34.6205032 98.3322588,34.6205032 98.3541476,34.6205032 C98.3770313,34.6205032 98.3989201,34.6205032 98.4436926,34.643377 C98.4436926,34.643377 98.4655814,34.6205032 98.4884651,34.5737159 C98.5103539,34.5269287 98.5551264,34.4801414 98.5780101,34.4572676 C98.6227826,34.4104803 98.6446714,34.3876066 98.6665602,34.3876066 C98.6894439,34.3876066 98.7113327,34.3876066 98.7342164,34.4104803 C98.7561052,34.4333541 98.778989,34.4572676 98.778989,34.4801414 C98.8008777,34.5040549 98.8237615,34.5508422 98.8237615,34.5737159 C98.8456503,34.5965897 98.8456503,34.6205032 98.868534,34.643377 C98.868534,34.6901643 98.9123115,34.7369515 98.9799678,34.7837388 C99.0466291,34.8305261 99.0685179,34.8773134 99.0914016,34.9241006 C99.1132904,34.9469744 99.1132904,35.0166355 99.1361741,35.11021 C99.1580629,35.2266583 99.2028354,35.2973591 99.2476079,35.3202329 C99.2923804,35.3670202 99.3371529,35.3909337 99.4266979,35.4138074 C99.4485867,35.4366812 99.4933592,35.4366812 99.5381318,35.4138074 C99.604793,35.3909337 99.6495656,35.3909337 99.6943381,35.3909337 C99.7162269,35.4138074 99.7391106,35.4366812 99.7391106,35.507382 C99.7838831,35.4605947 99.8286556,35.4138074 99.8286556,35.3909337 C99.8286556,35.507382 99.8505444,35.6009565 99.8953169,35.6706176 C99.9400894,35.7402786 100.006751,35.7641921 100.118185,35.7641921 L100.096296,36.0438761 C100.073412,36.0906633 100.006751,36.1135371 99.8953169,36.1374506 C99.8057719,36.1603244 99.7391106,36.1842379 99.7162269,36.2071117 C99.6943381,36.2071117 99.6276768,36.2778124 99.5381318,36.3703473 C99.4485867,36.4639218 99.4038142,36.5107091 99.4266979,36.5335829 C99.2704916,36.3703473 99.0685179,36.32356 98.778989,36.3942608 C98.4655814,36.441048 98.2427138,36.4878353 98.13128,36.5335829 C97.9969624,36.6042836 97.9074174,36.6739447 97.8626449,36.7436057 C97.8626449,36.7436057 97.8407561,36.7675192 97.8188673,36.8371803 C97.7959836,36.8839676 97.7740948,36.9307548 97.7512111,36.9775421 C97.7293223,37.0243294 97.7064386,37.0472032 97.7064386,37.0472032 C97.7512111,37.0243294 97.7959836,36.9775421 97.8626449,36.9078811 C97.9303011,36.8371803 97.9750737,36.790393 97.9750737,36.790393 C98.1979413,36.6510709 98.3770313,36.5803701 98.5103539,36.6271574 C98.7113327,36.6978582 98.7342164,36.7675192 98.5998989,36.8371803 C98.5998989,36.8610938 98.5551264,36.8610938 98.4884651,36.8610938 L98.3322588,36.8610938 C98.3989201,36.8839676 98.4655814,36.9078811 98.5103539,36.9307548 C98.5780101,36.9775421 98.5780101,37.0243294 98.5551264,37.0711167 C98.6894439,37.1407777 98.7113327,37.2343523 98.6227826,37.3279268 C98.5332376,37.4443751 98.3989201,37.4911624 98.2427138,37.4672489 C98.2646026,37.4672489 98.2646026,37.4911624 98.2427138,37.5140362 L98.0417349,37.654398 C98.0188512,37.6772718 97.9750737,37.7011853 97.8626449,37.7240591 C97.7740948,37.7708463 97.7293223,37.7937201 97.6845498,37.8405074 C97.6616661,37.8872947 97.6397773,37.9340819 97.6397773,38.0047827 L97.6397773,38.1680183 C97.6168936,38.1908921 97.5950048,38.1908921 97.5283435,38.1908921 C97.5054598,38.2376794 97.4387985,38.2844666 97.3044809,38.3073404 C97.1711583,38.3312539 97.0816133,38.3780412 97.0587296,38.4477022 C97.1035021,38.5173633 97.1035021,38.588064 97.0368408,38.6577251 C96.9472958,38.7512996 96.8577508,38.7273862 96.7692007,38.6348513 C96.7244282,38.6348513 96.7015445,38.6805989 96.6796557,38.7512996 C96.6567719,38.8209607 96.6348832,38.867748 96.5901106,38.8906218 C96.6567719,39.0081098 96.6348832,39.0548971 96.5682219,39.1006446 C96.5682219,39.1006446 96.5901106,39.1245581 96.6119994,39.1245581 C96.6567719,39.1474319 96.6796557,39.1713454 96.7244282,39.1942192 C96.746317,39.2181327 96.7692007,39.2410064 96.7692007,39.2410064 C96.746317,39.3106675 96.7015445,39.3574548 96.6348832,39.3574548 C96.6796557,39.4978166 96.6348832,39.6381784 96.4557931,39.801414 C96.4110206,39.8482013 96.367243,39.8710751 96.2995868,39.9178623 C96.2329255,39.9417758 96.1652693,39.9875234 96.098608,40.0114369 C96.0538355,40.0343107 96.009063,40.0343107 96.009063,40.0582242 C95.9205129,40.1278852 95.8528566,40.1975463 95.8080841,40.2911208 C95.7861953,40.3618216 95.7643066,40.4543564 95.8080841,40.5250572 C95.8309679,40.617592 95.8976291,40.6643793 96.0319467,40.6882928 L96.0319467,40.7818673 L96.0319467,41.014764 L96.0538355,41.1312123 C96.0538355,41.1779996 96.0767192,41.2476606 96.0767192,41.2944479 L96.0767192,41.481597 C96.0767192,41.5512581 96.0538355,41.5980453 96.009063,41.5980453 C95.9871742,41.5980453 95.9424017,41.5980453 95.8757404,41.5751716 C95.8080841,41.5283843 95.7414228,41.3412352 95.6518778,40.9918902 C95.629989,40.9211894 95.5852165,40.8047411 95.4956715,40.6882928 C95.450899,40.7350801 95.4061265,40.7579538 95.3842377,40.7818673 L95.3175764,40.7818673 C95.3175764,40.7579538 95.2946927,40.7579538 95.2499202,40.7111666 C95.2280314,40.6882928 95.1832589,40.6643793 95.1603751,40.6415055 C95.1165976,40.617592 95.0489413,40.5947182 94.9593963,40.5718445 C94.8479625,40.5718445 94.7813012,40.547931 94.7584175,40.5250572 C94.5574387,40.6643793 94.4460048,40.6415055 94.4012323,40.4075691 C94.3793436,40.4314826 94.3793436,40.5011437 94.4012323,40.5718445 C94.4241161,40.6415055 94.4241161,40.6882928 94.4241161,40.6882928 C94.3793436,40.8047411 94.2897985,40.8276149 94.155481,40.7350801 C94.1107085,40.6643793 93.9992747,40.6643793 93.8211796,40.7111666 C93.6420895,40.7350801 93.5306557,40.7579538 93.4639944,40.7350801 C93.4639944,40.7350801 93.4858832,40.7350801 93.508767,40.7579538 C93.5306557,40.7818673 93.5525445,40.8047411 93.5525445,40.8047411 C93.5525445,40.8276149 93.5306557,40.8515284 93.5306557,40.8744022 C93.508767,40.8983157 93.4858832,40.8983157 93.4639944,40.8983157 L93.4192219,40.8983157 C93.3963382,40.8983157 93.3744494,40.9211894 93.3515657,40.9211894 C93.3296769,40.9451029 93.2849044,40.9918902 93.2401319,41.0615513 C93.1953594,41.1312123 93.1505869,41.1551258 93.1286981,41.1779996 C93.1734706,41.3183614 93.1953594,41.4348097 93.1953594,41.5044708 C93.1953594,41.5751716 93.1734706,41.6916199 93.1505869,41.8319817 C93.1286981,41.9713038 93.1286981,42.0887918 93.1286981,42.1584529 C93.1286981,42.2988147 93.1734706,42.4620503 93.2401319,42.6481597 C93.3296769,42.8353088 93.4192219,42.9517571 93.5306557,43.0214182 C93.5754282,43.0682054 93.6868621,43.0921189 93.8211796,43.0921189 C93.9545022,43.0921189 94.0669309,43.0921189 94.1107085,43.0682054 C94.1783647,43.0453317 94.2002535,43.0214182 94.245026,42.9746309 C94.2679098,42.9517571 94.2897985,42.8820961 94.2897985,42.8353088 C94.3126823,42.764608 94.334571,42.7188605 94.334571,42.694947 C94.4012323,42.5317114 94.4907774,42.4381368 94.6469837,42.4381368 C94.7584175,42.415263 94.8260737,42.4381368 94.8708462,42.4620503 C94.9156187,42.4849241 94.9375075,42.5317114 94.9375075,42.5784986 C94.9156187,42.6481597 94.9156187,42.694947 94.892735,42.7417342 C94.8479625,42.8113953 94.8260737,42.8581826 94.7813012,42.9288833 C94.7584175,42.9985444 94.7365287,43.0682054 94.7146399,43.0921189 C94.7146399,43.16178 94.6917562,43.2553545 94.6698674,43.3946766 C94.6698674,43.5121647 94.6469837,43.5818257 94.6469837,43.6057392 C94.6698674,43.628613 94.7146399,43.628613 94.8260737,43.628613 C94.8260737,43.6057392 94.8479625,43.5818257 94.8479625,43.5350385 C94.8708462,43.5121647 94.8708462,43.4882512 94.8708462,43.4653774 C94.9156187,43.5350385 94.98228,43.5818257 95.0718251,43.5818257 C95.1603751,43.6057392 95.2280314,43.558952 95.2728039,43.4882512 C95.2946927,43.5121647 95.3394652,43.5818257 95.4290102,43.6754003 C95.4956715,43.7918486 95.540444,43.8615097 95.5623328,43.9322104 C95.5623328,43.9789977 95.5852165,44.0247453 95.6071053,44.1183198 C95.629989,44.1890206 95.629989,44.2358079 95.629989,44.2815554 C95.629989,44.3054689 95.5852165,44.3283427 95.4956715,44.3283427 C95.4737827,44.3283427 95.450899,44.3283427 95.450899,44.3522562 C95.4290102,44.37513 95.4290102,44.4219172 95.450899,44.4458307 C95.450899,44.4915783 95.450899,44.5383656 95.4737827,44.5622791 C95.4956715,44.6090663 95.4956715,44.6319401 95.5185552,44.6787274 C95.540444,44.7255147 95.5623328,44.7483884 95.5623328,44.7483884 C95.6966503,45.0291121 95.8976291,45.1216469 96.1652693,44.9823248 C96.1652693,45.239135 96.098608,45.3784571 95.9871742,45.4023706 C95.9205129,45.4252443 95.8528566,45.3784571 95.7643066,45.2620087 C95.6747615,45.1684342 95.6518778,45.0758994 95.6747615,45.0051986 C95.6747615,45.0519859 95.6518778,45.0987731 95.5852165,45.1216469 C95.540444,45.0758994 95.4737827,45.0051986 95.3623489,44.9355375 C95.2499202,44.841963 95.1832589,44.7951757 95.1384864,44.7255147 C95.1165976,44.7016012 95.0937138,44.6787274 95.0718251,44.6319401 C95.0489413,44.5851528 95.0041688,44.5154918 94.9593963,44.4458307 C94.9156187,44.3522562 94.892735,44.2815554 94.8708462,44.2358079 C94.8479625,44.1890206 94.8479625,44.1422333 94.8479625,44.1422333 C94.6917562,44.2118944 94.4688886,44.1651071 94.1783647,44.0018715 C94.1107085,43.9550842 94.0221584,43.8615097 93.9107246,43.7221876 C93.7982959,43.5818257 93.6649733,43.5121647 93.5525445,43.5350385 C93.508767,43.5350385 93.4411107,43.558952 93.3744494,43.558952 C93.3077881,43.5818257 93.2401319,43.6057392 93.1953594,43.6057392 C93.1505869,43.6057392 93.0839256,43.5818257 92.9943806,43.558952 C92.9277193,43.5350385 92.8381742,43.4653774 92.7267404,43.3946766 C92.6153066,43.3250156 92.5476504,43.2782283 92.5028779,43.2553545 C92.4809891,43.2553545 92.4143278,43.2085673 92.3466716,43.16178 C92.2581215,43.1389062 92.1904652,43.0921189 92.1456927,43.0682054 C92.1009202,43.0453317 92.0342589,42.9985444 91.9894864,42.9517571 C91.9228251,42.8820961 91.8999414,42.8353088 91.8780526,42.764608 C91.8551689,42.7188605 91.8332801,42.6013724 91.8113913,42.4620503 C91.7885076,42.2988147 91.7666188,42.1813267 91.7218463,42.1116656 C91.6770738,42.0420046 91.5875288,41.94843 91.4979837,41.8548555 C91.4094337,41.7612809 91.3198886,41.7384072 91.2522324,41.7384072 C91.3198886,41.7384072 91.3198886,41.6677064 91.2522324,41.5512581 C91.1855711,41.4348097 91.1407986,41.3412352 91.0741373,41.2944479 C91.0741373,41.2715741 91.007476,41.2247869 90.9398198,41.1312123 C90.8512697,41.0376378 90.7836135,40.9451029 90.7169522,40.8744022 C90.6721797,40.8047411 90.6055184,40.7350801 90.5607459,40.6415055 C90.5378621,40.547931 90.5159733,40.4782699 90.5378621,40.4075691 C90.5607459,40.4075691 90.5378621,40.3846954 90.5159733,40.3618216 C90.4930896,40.3618216 90.4712008,40.3379081 90.4264283,40.3150343 C90.3816558,40.3150343 90.359767,40.2911208 90.3149945,40.268247 C90.2921108,40.268247 90.270222,40.2443335 90.2473383,40.2443335 C90.270222,40.2911208 90.2921108,40.3618216 90.2921108,40.4543564 C90.3149945,40.5250572 90.3368833,40.5947182 90.3816558,40.6415055 C90.3816558,40.6882928 90.4483171,40.8047411 90.5826346,41.014764 C90.8064972,41.3880225 90.8950473,41.6677064 90.8731585,41.8319817 C90.828386,41.8548555 90.8064972,41.8319817 90.7836135,41.8080682 C90.7617247,41.7612809 90.7617247,41.7144937 90.7388409,41.6677064 C90.7388409,41.5980453 90.7388409,41.5512581 90.7169522,41.5283843 C90.6940684,41.481597 90.6274071,41.411936 90.5159733,41.3651487 C90.4264283,41.2944479 90.359767,41.2476606 90.3368833,41.1779996 L90.359767,41.1779996 C90.3816558,41.1551258 90.3816558,41.1551258 90.4045395,41.1551258 C90.4045395,41.084425 90.359767,40.9679767 90.270222,40.8515284 C90.1587882,40.7350801 90.1359045,40.6415055 90.1359045,40.5947182 C90.0692432,40.547931 90.0244707,40.4314826 89.9796982,40.2911208 C89.9130369,40.1278852 89.8901531,40.0343107 89.8453806,39.9875234 C89.8234918,39.9417758 89.7787193,39.8949886 89.712058,39.8482013 C89.6672855,39.8242878 89.5996293,39.7775005 89.532968,39.7307132 C89.4663067,39.6849657 89.4215342,39.6381784 89.3767617,39.6381784 C89.3767617,39.6142649 89.3319892,39.5913911 89.2872167,39.5206904 C89.0195765,39.1713454 88.9300315,38.9841963 89.0414653,38.9613225 C88.9300315,38.9841963 88.8404865,38.8906218 88.7738252,38.7045124 C88.7071639,38.4944895 88.6842802,38.3541277 88.7071639,38.2605531 L88.6842802,38.2376794 L88.6842802,37.9340819 C88.6842802,37.7708463 88.7071639,37.6076107 88.7290527,37.4672489 C88.7519364,37.3279268 88.7738252,37.257226 88.8404865,37.257226 C88.7738252,37.257226 88.7290527,37.2104388 88.7071639,37.0939904 C88.6842802,36.9775421 88.6842802,36.9078811 88.7071639,36.8610938 C88.7071639,36.8371803 88.7519364,36.8371803 88.8185977,36.9078811 C88.885259,36.9775421 88.9081427,37.0004159 88.9300315,37.0243294 C89.0414653,36.9536286 89.064349,36.8839676 89.0414653,36.790393 C89.0414653,36.7675192 88.9529152,36.6739447 88.7967089,36.5107091 C88.4385288,36.2778124 88.23755,36.1603244 88.23755,36.1603244 C88.2823225,36.0677896 88.2823225,35.9970888 88.1927775,35.9274277 C88.1261162,35.974215 88.0813437,35.974215 88.0594549,35.9503015 C88.0365712,35.9274277 88.0365712,35.8806405 88.0365712,35.8109794 C88.0146824,35.7402786 87.9917987,35.7174049 87.9699099,35.6934914 C87.9251374,35.6934914 87.8803649,35.6467041 87.8137036,35.6009565 C88.5509576,34.3636931 89.532968,33.4071533 90.7388409,32.7063839 L90.7388409,32.7063839 Z M96.009063,47.7126222 C96.0767192,47.5961738 96.1214917,47.5254731 96.1214917,47.455812 C95.9871742,47.4329382 95.9424017,47.3154502 95.9652854,47.1293408 C95.9871742,46.988979 96.098608,46.8257434 96.3224705,46.5928467 C96.4786768,46.4524849 96.5453381,46.2424621 96.4786768,45.9617384 C96.4557931,45.8692036 96.4339043,45.705968 96.4110206,45.4720316 C96.3891318,45.2620087 96.3891318,45.0987731 96.367243,45.0291121 C96.367243,45.0519859 96.4110206,45.0758994 96.4786768,45.0987731 C96.5682219,45.1216469 96.6119994,45.1455604 96.6348832,45.1684342 C96.6348832,45.1455604 96.6567719,45.0987731 96.6796557,45.0291121 C96.7244282,44.9584113 96.746317,44.911624 96.7692007,44.8887503 C96.7910895,44.841963 96.8139732,44.8190892 96.8806345,44.7723019 C96.925407,44.7483884 96.9701795,44.7255147 96.9701795,44.7016012 C96.9920683,44.7016012 97.0368408,44.6787274 97.0816133,44.6319401 C97.1482746,44.5851528 97.1930471,44.5383656 97.2378196,44.5154918 C97.2597084,44.4915783 97.3273647,44.4687045 97.3721372,44.4458307 C97.4387985,44.4458307 97.483571,44.4687045 97.5054598,44.5154918 C97.5502323,44.5622791 97.5502323,44.6558536 97.483571,44.7483884 C97.4387985,44.8658765 97.4387985,44.9355375 97.483571,44.9823248 C97.5054598,44.9584113 97.5054598,44.8887503 97.5054598,44.8190892 C97.5283435,44.7255147 97.5502323,44.6558536 97.5950048,44.6090663 C97.6397773,44.5622791 97.6845498,44.5383656 97.7293223,44.5154918 C97.7740948,44.5154918 97.8188673,44.5154918 97.8626449,44.5383656 C97.8855286,44.5622791 97.9303011,44.6090663 97.9750737,44.6319401 C98.0417349,44.6787274 98.0865075,44.7016012 98.13128,44.7016012 C98.2427138,44.7483884 98.3989201,44.841963 98.5780101,45.0051986 C98.5551264,44.9823248 98.5551264,44.9823248 98.5780101,44.9584113 C98.5780101,44.9584113 98.5998989,44.9355375 98.6227826,44.9355375 C98.6446714,44.911624 98.6665602,44.8887503 98.6894439,44.8887503 C98.7113327,44.8658765 98.7342164,44.8658765 98.7561052,44.841963 L98.8008777,44.841963 C98.8456503,44.841963 98.8904228,44.841963 98.9123115,44.8190892 C98.9351953,44.8190892 98.9799678,44.8190892 99.0247403,44.841963 C99.0685179,44.8887503 99.1132904,44.8887503 99.1132904,44.911624 C99.1361741,44.9355375 99.1580629,44.9584113 99.2028354,44.9823248 C99.2476079,45.0291121 99.2704916,45.0519859 99.2923804,45.0519859 C99.3142692,45.0758994 99.3590417,45.0987731 99.4266979,45.1455604 C99.4933592,45.1923477 99.5600205,45.239135 99.5829043,45.2620087 C99.6276768,45.2859222 99.6495656,45.3316698 99.6943381,45.3784571 C99.7162269,45.4252443 99.7162269,45.4720316 99.7162269,45.5416927 C99.7609994,45.5416927 99.8724332,45.5884799 100.006751,45.6352672 C100.051523,45.6591807 100.096296,45.6820545 100.162957,45.6820545 C100.252502,45.705968 100.297275,45.7288418 100.319163,45.7517155 C99.1132904,47.0825535 97.6616661,47.8987315 95.9652854,48.202329 C95.9424017,48.1326679 95.9205129,48.0630069 95.9205129,47.9923061 C95.9205129,47.9455188 95.9424017,47.852984 96.009063,47.7126222 L96.009063,47.7126222 Z" id="Fill-227-Copy-6" sketch:type="MSShapeGroup"></path>
        </g>
    </g>
</svg>