<?xml version="1.0" encoding="UTF-8" standalone="no"?>
<svg width="21px" height="20px" viewBox="0 0 21 20" version="1.1" xmlns="http://www.w3.org/2000/svg" xmlns:xlink="http://www.w3.org/1999/xlink" xmlns:sketch="http://www.bohemiancoding.com/sketch/ns">
    <!-- Generator: Sketch 3.3.3 (12072) - http://www.bohemiancoding.com/sketch -->
    <title>Search Copy</title>
    <desc>Created with Sketch.</desc>
    <defs></defs>
    <g id="Exchange---Maps-Feedbacks" stroke="none" stroke-width="1" fill="none" fill-rule="evenodd" sketch:type="MSPage">
        <g id="Artboard-12" sketch:type="MSArtboardGroup" transform="translate(-313.000000, -31.000000)" fill="#9AA5A8">
            <path d="M315.641924,45.444924 C316.430665,46.1987724 317.37816,46.8020429 318.461297,47.2537764 C319.565535,47.70551 320.715992,47.9213063 321.911663,47.9213063 C323.760432,47.9213063 325.429348,47.4264135 326.940516,46.4356687 L331.247947,50.5473073 C331.563443,50.8484631 331.925159,51 332.375294,51 C332.826434,51 333.188149,50.8484631 333.525751,50.5473073 C333.841247,50.2240925 334,49.8797775 334,49.449144 C334,49.0405697 333.841247,48.6741956 333.525751,48.3730399 L329.21832,44.2614012 C330.256243,42.8189229 330.774702,41.2258668 330.774702,39.4611327 C330.774702,38.3198101 330.54863,37.2216468 330.075385,36.1666427 C329.60214,35.1336978 328.970142,34.2292716 328.181401,33.4763823 C327.391655,32.7225339 326.444161,32.1202225 325.362029,31.6675299 C324.256786,31.2157963 323.106329,31 321.911663,31 C320.715992,31 319.565535,31.2157963 318.461297,31.6675299 C317.37816,32.1202225 316.430665,32.7225339 315.641924,33.4763823 C314.852178,34.2292716 314.221185,35.1336978 313.746936,36.1666427 C313.273691,37.2216468 313.047619,38.3198101 313.047619,39.4611327 C313.047619,40.6014962 313.273691,41.6996595 313.746936,42.7546636 C314.221185,43.7876085 314.852178,44.6920347 315.641924,45.444924 L315.641924,45.444924 Z M321.911663,34.0786937 C323.46704,34.0786937 324.798355,34.5956457 325.903597,35.6506498 C327.007835,36.7056539 327.549404,37.9754951 327.549404,39.4611327 C327.549404,40.9458112 327.007835,42.2166115 325.903597,43.2716156 C324.798355,44.3256606 323.46704,44.8426126 321.911663,44.8426126 C320.355281,44.8426126 319.024971,44.3256606 317.919728,43.2716156 C316.814486,42.2166115 316.272917,40.9458112 316.272917,39.4611327 C316.272917,37.9754951 316.814486,36.7056539 317.919728,35.6506498 C319.024971,34.5956457 320.355281,34.0786937 321.911663,34.0786937 L321.911663,34.0786937 Z" id="Search-Copy" sketch:type="MSShapeGroup"></path>
        </g>
    </g>
</svg>