<?xml version="1.0" encoding="UTF-8" standalone="no"?>
<svg width="20px" height="20px" viewBox="0 0 20 20" version="1.1" xmlns="http://www.w3.org/2000/svg" xmlns:xlink="http://www.w3.org/1999/xlink" xmlns:sketch="http://www.bohemiancoding.com/sketch/ns">
    <!-- Generator: Sketch 3.3.3 (12072) - http://www.bohemiancoding.com/sketch -->
    <title>Fill 66 Copy</title>
    <desc>Created with Sketch.</desc>
    <defs></defs>
    <g id="Exchange---Maps-Feedbacks" stroke="none" stroke-width="1" fill="none" fill-rule="evenodd" sketch:type="MSPage">
        <g id="Artboard-12" sketch:type="MSArtboardGroup" transform="translate(-237.000000, -30.000000)" fill="#9AA5A8">
            <path d="M241.994801,48.669162 C243.511749,49.5560408 245.191932,50 247.012477,50 C248.809108,50 250.489291,49.5560408 252.029112,48.669162 C253.546059,47.7594094 254.759409,46.5460595 255.670202,45.0291121 C256.55708,43.4882512 257,41.8080682 257,40.0114369 C257,38.1908921 256.55708,36.5107091 255.670202,34.9937617 C254.759409,33.4539405 253.546059,32.2395508 252.029112,31.3526721 C250.489291,30.4429195 248.809108,30 247.012477,30 C245.191932,30 243.511749,30.4429195 241.994801,31.3526721 C240.453941,32.2395508 239.240591,33.4539405 238.353712,34.9937617 C237.443959,36.5107091 237,38.1908921 237,40.0114369 C237,41.8080682 237.443959,43.4882512 238.353712,45.0291121 C239.240591,46.5460595 240.453941,47.7594094 241.994801,48.669162 L241.994801,48.669162 Z M243.441048,33.8739863 C244.53795,33.2439177 245.728426,32.9164067 247.012477,32.9164067 C248.295488,32.9164067 249.46205,33.2439177 250.558952,33.8739863 C251.63298,34.5040549 252.495945,35.3670202 253.126014,36.441048 C253.756082,37.5379497 254.083593,38.7273862 254.083593,40.0114369 C254.083593,41.2944479 253.756082,42.4620503 253.126014,43.558952 C252.495945,44.6319401 251.63298,45.4959451 250.558952,46.1260137 C249.46205,46.7560823 248.295488,47.0825535 247.012477,47.0825535 C245.728426,47.0825535 244.53795,46.7560823 243.441048,46.1260137 C242.36806,45.4959451 241.504055,44.6319401 240.873986,43.558952 C240.243918,42.4620503 239.917446,41.2944479 239.917446,40.0114369 C239.917446,38.7273862 240.243918,37.5379497 240.873986,36.441048 C241.504055,35.3670202 242.36806,34.5040549 243.441048,33.8739863 L243.441048,33.8739863 Z M243.791433,41.5512581 C243.861094,41.6219588 243.978582,41.6687461 244.09503,41.6687461 L248.2487,41.6687461 C248.365149,41.6687461 248.482637,41.6219588 248.552298,41.5512581 C248.621959,41.481597 248.668746,41.3651487 248.668746,41.2487004 L248.668746,35.4366812 C248.668746,35.3202329 248.621959,35.2037846 248.552298,35.1341235 C248.482637,35.0634227 248.365149,35.0166355 248.2487,35.0166355 L247.432522,35.0166355 C247.315034,35.0166355 247.198586,35.0634227 247.128925,35.1341235 C247.058224,35.2037846 247.012477,35.3202329 247.012477,35.4366812 L247.012477,40.0114369 L244.09503,40.0114369 C243.978582,40.0114369 243.861094,40.0582242 243.791433,40.1278852 C243.721772,40.1975463 243.674984,40.3150343 243.674984,40.4314826 L243.674984,41.2487004 C243.674984,41.3651487 243.721772,41.481597 243.791433,41.5512581 L243.791433,41.5512581 Z" id="Fill-66-Copy" sketch:type="MSShapeGroup"></path>
        </g>
    </g>
</svg>