<?xml version="1.0" encoding="UTF-8" standalone="no"?>
<svg width="20px" height="20px" viewBox="0 0 20 20" version="1.1" xmlns="http://www.w3.org/2000/svg" xmlns:xlink="http://www.w3.org/1999/xlink" xmlns:sketch="http://www.bohemiancoding.com/sketch/ns">
    <!-- Generator: Sketch 3.3.3 (12072) - http://www.bohemiancoding.com/sketch -->
    <title>Fill 26 Copy 3</title>
    <desc>Created with Sketch.</desc>
    <defs></defs>
    <g id="Exchange---Maps-Feedbacks" stroke="none" stroke-width="1" fill="none" fill-rule="evenodd" sketch:type="MSPage">
        <g id="Artboard-12" sketch:type="MSArtboardGroup" transform="translate(-354.000000, -31.000000)" fill="#9AA5A8">
            <path d="M356.476382,45.4458831 C357.229272,46.2208315 358.133698,46.8020429 359.167602,47.2537764 C360.221647,47.7064691 361.29871,47.9213063 362.461133,47.9213063 C364.204767,47.9213063 365.818923,47.4264135 367.261401,46.4356687 L371.37304,50.5473073 C371.674196,50.8494221 372.01947,51 372.449144,51 C372.879777,51 373.246152,50.8494221 373.547307,50.5473073 C373.848463,50.2461516 374,49.8797775 374,49.4501031 C374,49.0405697 373.848463,48.6751547 373.547307,48.3730399 L369.435669,44.2614012 C370.426413,42.8189229 370.921306,41.2258668 370.921306,39.4611327 C370.921306,38.3198101 370.70551,37.2216468 370.253776,36.1887019 C369.802043,35.1336978 369.198772,34.2292716 368.445883,33.4763823 C367.692035,32.7225339 366.787608,32.1202225 365.732604,31.6684889 C364.69966,31.2157963 363.601496,31.0009591 362.461133,31.0009591 C361.31981,31.0009591 360.221647,31.2157963 359.167602,31.6684889 C358.133698,32.1202225 357.229272,32.7225339 356.476382,33.4763823 C355.701434,34.2292716 355.120223,35.1336978 354.66753,36.1887019 C354.215796,37.2216468 354,38.3198101 354,39.4611327 C354,40.6014962 354.215796,41.6996595 354.66753,42.7546636 C355.120223,43.7876085 355.701434,44.6920347 356.476382,45.4458831 L356.476382,45.4458831 Z M362.461133,34.0786937 C363.924711,34.0786937 365.194552,34.6177049 366.249556,35.6717499 C367.30456,36.7267539 367.842613,37.9975543 367.842613,39.4611327 C367.842613,40.9467702 367.30456,42.2166115 366.249556,43.2716156 C365.194552,44.3266197 363.924711,44.8426126 362.461133,44.8426126 C360.975495,44.8426126 359.705654,44.3266197 358.65065,43.2716156 C357.595646,42.2166115 357.078694,40.9467702 357.078694,39.4611327 C357.078694,37.9975543 357.595646,36.7267539 358.65065,35.6717499 C359.705654,34.6177049 360.975495,34.0786937 362.461133,34.0786937 L362.461133,34.0786937 Z M358.714909,40.1286625 C358.801228,40.1929219 358.887546,40.2360811 358.994965,40.2360811 L361.686184,40.2360811 L361.686184,42.9273006 C361.686184,43.0347192 361.729343,43.1210377 361.793603,43.2063972 C361.879921,43.2716156 361.965281,43.3147749 362.073658,43.3147749 L362.826548,43.3147749 C362.934925,43.3147749 363.020285,43.2716156 363.106603,43.2063972 C363.170863,43.1210377 363.214022,43.0347192 363.214022,42.9273006 L363.214022,40.2360811 L365.905241,40.2360811 C366.01266,40.2360811 366.098979,40.1929219 366.185297,40.1286625 C366.249556,40.042344 366.292716,39.9560255 366.292716,39.8486069 L366.292716,39.0947585 C366.292716,38.98734 366.249556,38.9010214 366.185297,38.8147029 C366.098979,38.7504436 366.01266,38.7072843 365.905241,38.7072843 L363.214022,38.7072843 L363.214022,36.0160648 C363.214022,35.9086462 363.170863,35.8232868 363.106603,35.7369683 C363.020285,35.6717499 362.934925,35.6285906 362.826548,35.6285906 L362.073658,35.6285906 C361.965281,35.6285906 361.879921,35.6717499 361.793603,35.7369683 C361.729343,35.8232868 361.686184,35.9086462 361.686184,36.0160648 L361.686184,38.7072843 L358.994965,38.7072843 C358.887546,38.7072843 358.801228,38.7504436 358.714909,38.8147029 C358.65065,38.9010214 358.607491,38.98734 358.607491,39.0947585 L358.607491,39.8486069 C358.607491,39.9560255 358.65065,40.042344 358.714909,40.1286625 L358.714909,40.1286625 Z" id="Fill-26-Copy-3" sketch:type="MSShapeGroup"></path>
        </g>
    </g>
</svg>