<?xml version="1.0" encoding="UTF-8" standalone="no"?>
<svg width="20px" height="20px" viewBox="0 0 20 20" version="1.1" xmlns="http://www.w3.org/2000/svg" xmlns:xlink="http://www.w3.org/1999/xlink" xmlns:sketch="http://www.bohemiancoding.com/sketch/ns">
    <!-- Generator: Sketch 3.3.3 (12072) - http://www.bohemiancoding.com/sketch -->
    <title>Fill 26 Copy 4</title>
    <desc>Created with Sketch.</desc>
    <defs></defs>
    <g id="Exchange---Maps-Feedbacks" stroke="none" stroke-width="1" fill="none" fill-rule="evenodd" sketch:type="MSPage">
        <g id="Artboard-12" sketch:type="MSArtboardGroup" transform="translate(-394.000000, -31.000000)" fill="#9AA5A8">
            <path d="M396.476382,45.4458831 C397.229272,46.2208315 398.133698,46.8020429 399.167602,47.2537764 C400.221647,47.7064691 401.29871,47.9213063 402.461133,47.9213063 C404.204767,47.9213063 405.818923,47.4264135 407.261401,46.4356687 L411.37304,50.5473073 C411.674196,50.8494221 412.01947,51 412.449144,51 C412.879777,51 413.246152,50.8494221 413.547307,50.5473073 C413.848463,50.2461516 414,49.8797775 414,49.4501031 C414,49.0405697 413.848463,48.6751547 413.547307,48.3730399 L409.435669,44.2614012 C410.426413,42.8189229 410.921306,41.2258668 410.921306,39.4611327 C410.921306,38.3198101 410.70551,37.2216468 410.253776,36.1887019 C409.802043,35.1336978 409.198772,34.2292716 408.445883,33.4763823 C407.692035,32.7225339 406.787608,32.1202225 405.732604,31.6684889 C404.69966,31.2157963 403.601496,31.0009591 402.461133,31.0009591 C401.31981,31.0009591 400.221647,31.2157963 399.167602,31.6684889 C398.133698,32.1202225 397.229272,32.7225339 396.476382,33.4763823 C395.701434,34.2292716 395.120223,35.1336978 394.66753,36.1887019 C394.215796,37.2216468 394,38.3198101 394,39.4611327 C394,40.6014962 394.215796,41.6996595 394.66753,42.7546636 C395.120223,43.7876085 395.701434,44.6920347 396.476382,45.4458831 L396.476382,45.4458831 Z M402.461133,34.0786937 C403.924711,34.0786937 405.194552,34.6177049 406.249556,35.6717499 C407.30456,36.7267539 407.842613,37.9975543 407.842613,39.4611327 C407.842613,40.9467702 407.30456,42.2166115 406.249556,43.2716156 C405.194552,44.3266197 403.924711,44.8426126 402.461133,44.8426126 C400.975495,44.8426126 399.705654,44.3266197 398.65065,43.2716156 C397.595646,42.2166115 397.078694,40.9467702 397.078694,39.4611327 C397.078694,37.9975543 397.595646,36.7267539 398.65065,35.6717499 C399.705654,34.6177049 400.975495,34.0786937 402.461133,34.0786937 L402.461133,34.0786937 Z M398.994965,40.2360811 L405.905241,40.2360811 C406.01266,40.2360811 406.098979,40.1929219 406.185297,40.1286625 C406.249556,40.042344 406.292716,39.9560255 406.292716,39.8486069 L406.292716,39.0947585 C406.292716,38.98734 406.249556,38.9010214 406.185297,38.8147029 C406.098979,38.7504436 406.01266,38.7072843 405.905241,38.7072843 L398.994965,38.7072843 C398.887546,38.7072843 398.801228,38.7504436 398.714909,38.8147029 C398.65065,38.9010214 398.607491,38.98734 398.607491,39.0947585 L398.607491,39.8486069 C398.607491,39.9560255 398.65065,40.042344 398.714909,40.1286625 C398.801228,40.1929219 398.887546,40.2360811 398.994965,40.2360811 Z" id="Fill-26-Copy-4" sketch:type="MSShapeGroup"></path>
        </g>
    </g>
</svg>